<svg xmlns="http://www.w3.org/2000/svg" width="1200" height="800" viewBox="0 0 1200 800">
  <defs>
    <linearGradient id="bg2" x1="0" x2="1" y1="0" y2="1">
      <stop offset="0%" stop-color="#111827"/>
      <stop offset="100%" stop-color="#0f172a"/>
    </linearGradient>
    <filter id="shadow2" x="-20%" y="-20%" width="140%" height="140%">
      <feDropShadow dx="0" dy="8" stdDeviation="12" flood-color="#000" flood-opacity="0.4"/>
    </filter>
  </defs>
  <rect width="1200" height="800" fill="url(#bg2)"/>
  <g transform="translate(150,100)" filter="url(#shadow2)">
    <rect x="0" y="0" width="900" height="600" rx="18" fill="#0b1220" stroke="#fca5a5" stroke-width="6"/>
    <!-- Perforation effect -->
    <g fill="#0b1220">
      <g transform="translate(20, -10)">
        <circle r="8" cx="0" cy="0"/>
        <g id="pp" transform="translate(30,0)"><circle r="8" cx="0" cy="0"/></g>
        <use href="#pp" x="30"/><use href="#pp" x="60"/><use href="#pp" x="90"/><use href="#pp" x="120"/>
        <use href="#pp" x="150"/><use href="#pp" x="180"/><use href="#pp" x="210"/><use href="#pp" x="240"/>
        <use href="#pp" x="270"/><use href="#pp" x="300"/><use href="#pp" x="330"/><use href="#pp" x="360"/>
        <use href="#pp" x="390"/><use href="#pp" x="420"/><use href="#pp" x="450"/><use href="#pp" x="480"/>
        <use href="#pp" x="510"/><use href="#pp" x="540"/><use href="#pp" x="570"/><use href="#pp" x="600"/>
        <use href="#pp" x="630"/><use href="#pp" x="660"/><use href="#pp" x="690"/><use href="#pp" x="720"/>
        <use href="#pp" x="750"/>
      </g>
      <g transform="translate(20, 610)">
        <circle r="8" cx="0" cy="0"/>
        <use href="#pp" x="30"/><use href="#pp" x="60"/><use href="#pp" x="90"/><use href="#pp" x="120"/>
        <use href="#pp" x="150"/><use href="#pp" x="180"/><use href="#pp" x="210"/><use href="#pp" x="240"/>
        <use href="#pp" x="270"/><use href="#pp" x="300"/><use href="#pp" x="330"/><use href="#pp" x="360"/>
        <use href="#pp" x="390"/><use href="#pp" x="420"/><use href="#pp" x="450"/><use href="#pp" x="480"/>
        <use href="#pp" x="510"/><use href="#pp" x="540"/><use href="#pp" x="570"/><use href="#pp" x="600"/>
        <use href="#pp" x="630"/><use href="#pp" x="660"/><use href="#pp" x="690"/><use href="#pp" x="720"/>
        <use href="#pp" x="750"/>
      </g>
    </g>
    <text x="450" y="70" text-anchor="middle" fill="#fecaca" font-size="40" font-family="Inter, Arial" font-weight="700">Inverted Jenny (1918)</text>
    <text x="450" y="110" text-anchor="middle" fill="#fca5a5" font-size="18" font-family="Inter, Arial">Famous printing error • USA • Iconic rarity</text>
    <!-- Placeholder inverted plane icon (abstract) -->
    <g transform="translate(450,300) rotate(180)">
      <rect x="-200" y="-80" width="400" height="160" rx="12" fill="#111827" stroke="#ef4444"/>
      <polygon points="-100,0 0,-40 100,0 0,40" fill="#ef4444" opacity="0.8"/>
    </g>
    <text x="450" y="520" text-anchor="middle" fill="#fca5a5" font-size="20" font-family="Inter, Arial">Illustrative placeholder — no copyrighted image</text>
    <text x="80" y="555" fill="#fecaca" font-size="18" font-family="Inter, Arial">• 100 examples known • Rarity narrative drives demand</text>
  </g>
</svg>
